<svg width="42" height="40" viewBox="0 0 42 40" fill="none" xmlns="http://www.w3.org/2000/svg">
<path d="M0.162598 39.7508V35.5841L4.32926 35.5837V6.07285C4.32926 5.06602 5.04931 4.20325 6.03991 4.02312L25.7723 0.435414C26.4515 0.311935 27.1023 0.762435 27.2258 1.44164C27.2392 1.51543 27.2458 1.59027 27.2458 1.66525V4.33379L35.5792 4.33416C36.7298 4.33416 37.6625 5.26689 37.6625 6.4175V35.5837L41.8292 35.5841V39.7508H33.4958V8.50083L27.2458 8.50046V39.7508H0.162598ZM23.0792 5.16004L8.49593 7.81156V35.5841H23.0792V5.16004ZM20.9958 18.9175V23.0841H16.8293V18.9175H20.9958Z" fill="black"/>
</svg>
