<svg width="60" height="60" viewBox="0 0 60 60" fill="none" xmlns="http://www.w3.org/2000/svg">
<path d="M30.0002 0.833008C46.1083 0.833008 59.1668 13.8914 59.1668 29.9997C59.1668 46.1078 46.1083 59.1663 30.0002 59.1663C13.8919 59.1663 0.833496 46.1078 0.833496 29.9997C0.833496 13.8914 13.8919 0.833008 30.0002 0.833008ZM30.466 41.6663C24.5294 41.6663 19.1846 44.2001 15.454 48.2452C19.443 51.4296 24.4993 53.333 30.0002 53.333C35.7445 53.333 41.0039 51.2572 45.0694 47.815C41.3623 44.0213 36.189 41.6663 30.466 41.6663ZM30.0002 6.66634C17.1135 6.66634 6.66683 17.113 6.66683 29.9997C6.66683 35.2806 8.42121 40.1517 11.3789 44.0621C16.1646 38.995 22.946 35.833 30.466 35.833C37.7121 35.833 44.2723 38.7689 49.0221 43.5161C51.7369 39.7026 53.3335 35.0376 53.3335 29.9997C53.3335 17.113 42.8869 6.66634 30.0002 6.66634ZM30.0002 9.58301C36.4434 9.58301 41.6668 14.8064 41.6668 21.2497C41.6668 27.6929 36.4434 32.9163 30.0002 32.9163C23.5568 32.9163 18.3335 27.6929 18.3335 21.2497C18.3335 14.8064 23.5568 9.58301 30.0002 9.58301ZM30.0002 15.4163C26.7784 15.4163 24.1668 18.028 24.1668 21.2497C24.1668 24.4714 26.7784 27.083 30.0002 27.083C33.2219 27.083 35.8335 24.4714 35.8335 21.2497C35.8335 18.028 33.2219 15.4163 30.0002 15.4163Z" fill="black"/>
</svg>
